<?xml version="1.0" encoding="UTF-8"?>
<svg width="84px" height="83px" viewBox="0 0 84 83" version="1.1" xmlns="http://www.w3.org/2000/svg"
     xmlns:xlink="http://www.w3.org/1999/xlink">
    <!-- Generator: Sketch 55.2 (78181) - https://sketchapp.com -->
    <title>消费贷-icon</title>
    <desc>Created with Sketch.</desc>
    <g id="小时贷&amp;借钱&amp;普惠贷款" stroke="none" stroke-width="1" fill="none" fill-rule="evenodd">
        <g id="1_0_普惠贷款" transform="translate(-24.000000, -432.000000)">
            <g id="消费贷-icon" transform="translate(24.000000, 430.000000)">
                <rect id="矩形" fill-rule="nonzero" x="5" y="0" width="80" height="80"></rect>
                <path d="M42.5,77 C63.2106781,77 80,60.2106781 80,39.5 C80,18.7893219 63.2106781,2 42.5,2 C21.7893219,2 5,18.7893219 5,39.5 C5,60.2106781 21.7893219,77 42.5,77 Z M42.5,74.65625 C23.0837393,74.65625 7.34375,58.9162607 7.34375,39.5 C7.34375,20.0837393 23.0837393,4.34375 42.5,4.34375 C61.9162607,4.34375 77.65625,20.0837393 77.65625,39.5 C77.65625,58.9162607 61.9162607,74.65625 42.5,74.65625 Z"
                      id="椭圆形-copy-2" fill="#B98C5E" fill-rule="nonzero"></path>
                <circle id="椭圆形" fill="#FFFFFF" cx="7.5" cy="27.5" r="5.5"></circle>
                <path d="M55.3201816,61.2907949 C54.9517907,60.6273779 54.7460459,59.8813326 54.7460459,59.085019 C54.7460459,56.0770753 57.5649791,53.9628635 60.7467165,53.9629531 C61.1882735,53.9590125 61.6263927,54.0025011 62.0532428,54.091153 C62.0716774,54.0768758 62.0901479,54.0627768 62.1086503,54.04886 C63.1777016,53.2134521 64.4346237,52.75 65.7984141,52.75 C67.1584792,52.75 68.4123831,53.2107283 69.4766606,54.035969 C69.5025193,54.0559077 69.5282175,54.0760423 69.5537519,54.0963704 C69.9737016,54.0104587 70.4015396,53.9668142 70.8300328,53.9668142 C74.0333994,53.9668142 76.8507824,56.0778374 76.8507824,59.0889697 C76.8507824,60.0921015 76.5276233,61.0095391 75.9693753,61.7818927 C76.0699766,61.8724675 76.1697719,61.9640814 76.2687487,62.056721 L76.2750797,62.0626696 C78.8307457,64.4732818 80.2549736,67.1480578 80.25,70.0363464 C80.25,74.6746592 78.1508504,78.2195879 74.285356,80.2818806 C71.7952166,81.6119597 68.7279742,82.25 65.379442,82.25 C56.8850159,82.25 50.75,77.7556337 50.75,70.0323957 C50.75,67.0178873 52.1625621,64.2613937 54.6969586,61.8570955 C54.8999188,61.6637222 55.1075386,61.475043 55.3201816,61.2907949 Z"
                      id="路径" stroke="#FFFFFF" stroke-width="4.5" fill="#B98C5E"></path>
                <path d="M61.3551009,72.195171 C61.0942429,72.17537 60.893751,72.0640708 60.753623,71.861273 C60.6134958,71.6584752 60.5289556,71.4334079 60.5,71.1860686 C60.5289842,70.9387451 60.6135253,70.7359331 60.753623,70.5776302 C60.8937207,70.419328 61.0942142,70.3302841 61.3551009,70.3104983 L64.1522113,70.3104983 L64.1522113,69.3755703 L61.3551009,69.3607309 C61.0942429,69.34093 60.893751,69.2469395 60.753623,69.0787595 C60.6134958,68.9105796 60.5289556,68.6978746 60.5,68.4406424 C60.5289842,68.1933189 60.6135253,67.9905068 60.753623,67.832204 C60.8937207,67.6739018 61.0942142,67.5848579 61.3551009,67.5650721 L63.4420757,67.5650721 L61.5000221,64.0627908 C61.4033932,63.9440755 61.3116025,63.7931969 61.2246498,63.6101549 C61.1376971,63.427113 61.0990515,63.2267697 61.1087129,63.009125 C61.15702,62.7320933 61.2536413,62.5070177 61.3985773,62.333898 C61.5435132,62.160779 61.8140465,62.0494805 62.2101798,62 C62.442069,62.0197859 62.649796,62.1014065 62.8333627,62.2448615 C63.0169295,62.3883166 63.166688,62.5441343 63.2826403,62.7123142 L65.485552,66.8378732 L67.9058233,62.6826354 C68.0217602,62.5144554 68.1715187,62.3660546 68.3551009,62.2374305 C68.5386825,62.1088072 68.7464101,62.0296637 68.9782839,62 C69.123205,62.0098929 69.2560538,62.0296788 69.3768281,62.0593576 C69.497603,62.0890365 69.6038866,62.1385086 69.6956766,62.2077743 C69.7874673,62.27704 69.8647586,62.3759769 69.9275505,62.5045851 C69.9903423,62.6331933 70.0362303,62.8013891 70.0652145,63.0091702 C70.0652145,63.2960812 69.9685931,63.5681438 69.7753502,63.8253603 L67.5289622,67.5650946 L69.6594353,67.5650946 C69.9106474,67.5848956 70.1087129,67.6739396 70.2536341,67.8322266 C70.3985552,67.9905136 70.4806772,68.1933257 70.5,68.440665 C70.4806625,68.6978972 70.3961215,68.9155486 70.246377,69.0936215 C70.0966324,69.2716944 69.8961398,69.3706306 69.6448991,69.3904323 L66.8767509,69.4052491 L66.8767509,70.3104983 L69.6593691,70.3104983 C69.9105812,70.3302841 70.1086467,70.429221 70.2535679,70.607309 C70.398489,70.7853971 70.480611,70.9981027 70.5,71.2454262 C70.4805963,71.5026584 70.3984742,71.7178479 70.2535679,71.890997 C70.1086615,72.064146 69.9105945,72.1606067 69.6593691,72.1803767 L66.8767509,72.1655599 L66.8767509,73.7385825 C66.8381052,74.5795275 66.3888276,75 65.5289181,75 C65.1038006,75 64.7728731,74.8961241 64.536131,74.6883724 C64.299389,74.4806207 64.1713797,74.164024 64.152101,73.7385825 L64.152101,72.1951936 L61.3551009,72.195171 Z"
                      id="路径" fill="#FFFFFF" fill-rule="nonzero"></path>
                <path d="M74,45 L74.4538143,51.0064199 C74.4723882,52.1200934 75.171875,52.6769301 76.5522748,52.6769301 C77.9326746,52.6769301 79.9577014,52.3028684 82.6273552,51.5547449"
                      id="路径-4" stroke="#B98C5E" stroke-width="2"
                      transform="translate(78.313678, 48.838465) rotate(-16.000000) translate(-78.313678, -48.838465) "></path>
                <path d="M2,33 L2.45381434,39.0064199 C2.47238817,40.1200934 3.171875,40.6769301 4.55227482,40.6769301 C5.93267463,40.6769301 7.95770144,40.3028684 10.6273552,39.5547449"
                      id="路径-4备份" stroke="#B98C5E" stroke-width="2"
                      transform="translate(6.313678, 36.838465) rotate(-217.000000) translate(-6.313678, -36.838465) "></path>
                <path d="M56.3749889,26.5333297 L49.4374997,26.5333297 L49.4374997,24.2666649 C49.4374997,23.0199999 48.3968746,22 47.125001,22 L37.8749924,22 L37.8749923,22 C36.5993119,22.0034865 35.5660498,23.0162685 35.5624936,24.2666649 L35.5624936,26.5333297 L28.6250043,26.5333297 C26.0812536,26.5333297 24,28.5733295 24,31.0666662 L24,51.4666635 C24,53.9599969 26.0812502,56 28.6250043,56 L56.3749957,56 C58.9187464,56 61,53.9600003 61,51.4666635 L61,31.0666662 C61,28.5733328 58.9187498,26.5333297 56.3749957,26.5333297 L56.3749889,26.5333297 Z M37.8749855,25.3999973 C37.8749855,24.7762106 38.3957821,24.2666649 39.0312555,24.2666649 L45.9687447,24.2666649 C46.6051449,24.2666649 47.1249941,24.777119 47.1249941,25.3999973 L47.1249941,26.5333297 L37.8749855,26.5333297 L37.8749855,25.3999973 L37.8749855,25.3999973 Z M58.6875083,51.4666568 C58.6875083,52.7133218 57.6468831,53.7333217 56.3750095,53.7333217 L28.6250181,53.7333217 L28.625018,53.7333217 C27.3493376,53.7298351 26.3160755,52.7170531 26.3125193,51.4666568 L26.3125193,39.0000052 L38.0489092,39.0000052 L38.0489092,39.0000052 C37.9304819,39.3664668 37.8717934,39.7489491 37.8750091,40.1333391 C37.8750091,42.6266725 39.9562593,44.6666756 42.5000134,44.6666756 C45.043764,44.6666756 47.1250177,42.6266758 47.1250177,40.1333391 L47.1250177,40.1333376 C47.1282334,39.7489443 47.0695449,39.3664654 46.9511172,39.0000052 L58.6875083,39.0000052 L58.6875083,51.4666553 L58.6875083,51.4666568 Z M40.1875254,40.1333324 C40.1875254,39.7362142 40.3031504,39.3400011 40.5344016,39 L44.5239256,39 C44.6969007,39.3400011 44.8708018,39.7371193 44.8708018,40.1333324 C44.8708018,41.3799974 43.8301767,42.3999973 42.5583031,42.3999973 C41.228154,42.3999973 40.1875254,41.3799974 40.1875254,40.1333324 L40.1875254,40.1333324 Z M58.6875083,36.7333217 L26.3125125,36.7333217 L26.3125125,31.0666595 C26.3125125,29.8199945 27.3531377,28.7999946 28.6250113,28.7999946 L56.3750027,28.7999946 C57.6468763,28.7999946 58.6875083,29.8199945 58.6875083,31.0666595 L58.6875083,36.7333217 L58.6875083,36.7333217 Z"
                      id="形状" fill="#B98C5E" fill-rule="nonzero"></path>
            </g>
        </g>
    </g>
</svg>