<?xml version="1.0" encoding="UTF-8"?>
<svg width="84px" height="83px" viewBox="0 0 84 83" version="1.1" xmlns="http://www.w3.org/2000/svg"
     xmlns:xlink="http://www.w3.org/1999/xlink">
    <!-- Generator: Sketch 55.2 (78181) - https://sketchapp.com -->
    <title>经营贷-icon</title>
    <desc>Created with Sketch.</desc>
    <g id="小时贷&amp;借钱&amp;普惠贷款" stroke="none" stroke-width="1" fill="none" fill-rule="evenodd">
        <g id="1_0_普惠贷款" transform="translate(-24.000000, -272.000000)">
            <g id="经营贷-icon" transform="translate(24.000000, 270.000000)">
                <rect id="矩形" fill-rule="nonzero" x="5" y="0" width="80" height="80"></rect>
                <path d="M42.5,77 C63.2106781,77 80,60.2106781 80,39.5 C80,18.7893219 63.2106781,2 42.5,2 C21.7893219,2 5,18.7893219 5,39.5 C5,60.2106781 21.7893219,77 42.5,77 Z M42.5,74.65625 C23.0837393,74.65625 7.34375,58.9162607 7.34375,39.5 C7.34375,20.0837393 23.0837393,4.34375 42.5,4.34375 C61.9162607,4.34375 77.65625,20.0837393 77.65625,39.5 C77.65625,58.9162607 61.9162607,74.65625 42.5,74.65625 Z"
                      id="椭圆形-copy-2" fill="#B98C5E" fill-rule="nonzero"></path>
                <circle id="椭圆形" fill="#FFFFFF" cx="7.5" cy="27.5" r="5.5"></circle>
                <path d="M55.3201816,61.2907949 C54.9517907,60.6273779 54.7460459,59.8813326 54.7460459,59.085019 C54.7460459,56.0770753 57.5649791,53.9628635 60.7467165,53.9629531 C61.1882735,53.9590125 61.6263927,54.0025011 62.0532428,54.091153 C62.0716774,54.0768758 62.0901479,54.0627768 62.1086503,54.04886 C63.1777016,53.2134521 64.4346237,52.75 65.7984141,52.75 C67.1584792,52.75 68.4123831,53.2107283 69.4766606,54.035969 C69.5025193,54.0559077 69.5282175,54.0760423 69.5537519,54.0963704 C69.9737016,54.0104587 70.4015396,53.9668142 70.8300328,53.9668142 C74.0333994,53.9668142 76.8507824,56.0778374 76.8507824,59.0889697 C76.8507824,60.0921015 76.5276233,61.0095391 75.9693753,61.7818927 C76.0699766,61.8724675 76.1697719,61.9640814 76.2687487,62.056721 L76.2750797,62.0626696 C78.8307457,64.4732818 80.2549736,67.1480578 80.25,70.0363464 C80.25,74.6746592 78.1508504,78.2195879 74.285356,80.2818806 C71.7952166,81.6119597 68.7279742,82.25 65.379442,82.25 C56.8850159,82.25 50.75,77.7556337 50.75,70.0323957 C50.75,67.0178873 52.1625621,64.2613937 54.6969586,61.8570955 C54.8999188,61.6637222 55.1075386,61.475043 55.3201816,61.2907949 Z"
                      id="路径" stroke="#FFFFFF" stroke-width="4.5" fill="#B98C5E"></path>
                <path d="M61.3551009,72.195171 C61.0942429,72.17537 60.893751,72.0640708 60.753623,71.861273 C60.6134958,71.6584752 60.5289556,71.4334079 60.5,71.1860686 C60.5289842,70.9387451 60.6135253,70.7359331 60.753623,70.5776302 C60.8937207,70.419328 61.0942142,70.3302841 61.3551009,70.3104983 L64.1522113,70.3104983 L64.1522113,69.3755703 L61.3551009,69.3607309 C61.0942429,69.34093 60.893751,69.2469395 60.753623,69.0787595 C60.6134958,68.9105796 60.5289556,68.6978746 60.5,68.4406424 C60.5289842,68.1933189 60.6135253,67.9905068 60.753623,67.832204 C60.8937207,67.6739018 61.0942142,67.5848579 61.3551009,67.5650721 L63.4420757,67.5650721 L61.5000221,64.0627908 C61.4033932,63.9440755 61.3116025,63.7931969 61.2246498,63.6101549 C61.1376971,63.427113 61.0990515,63.2267697 61.1087129,63.009125 C61.15702,62.7320933 61.2536413,62.5070177 61.3985773,62.333898 C61.5435132,62.160779 61.8140465,62.0494805 62.2101798,62 C62.442069,62.0197859 62.649796,62.1014065 62.8333627,62.2448615 C63.0169295,62.3883166 63.166688,62.5441343 63.2826403,62.7123142 L65.485552,66.8378732 L67.9058233,62.6826354 C68.0217602,62.5144554 68.1715187,62.3660546 68.3551009,62.2374305 C68.5386825,62.1088072 68.7464101,62.0296637 68.9782839,62 C69.123205,62.0098929 69.2560538,62.0296788 69.3768281,62.0593576 C69.497603,62.0890365 69.6038866,62.1385086 69.6956766,62.2077743 C69.7874673,62.27704 69.8647586,62.3759769 69.9275505,62.5045851 C69.9903423,62.6331933 70.0362303,62.8013891 70.0652145,63.0091702 C70.0652145,63.2960812 69.9685931,63.5681438 69.7753502,63.8253603 L67.5289622,67.5650946 L69.6594353,67.5650946 C69.9106474,67.5848956 70.1087129,67.6739396 70.2536341,67.8322266 C70.3985552,67.9905136 70.4806772,68.1933257 70.5,68.440665 C70.4806625,68.6978972 70.3961215,68.9155486 70.246377,69.0936215 C70.0966324,69.2716944 69.8961398,69.3706306 69.6448991,69.3904323 L66.8767509,69.4052491 L66.8767509,70.3104983 L69.6593691,70.3104983 C69.9105812,70.3302841 70.1086467,70.429221 70.2535679,70.607309 C70.398489,70.7853971 70.480611,70.9981027 70.5,71.2454262 C70.4805963,71.5026584 70.3984742,71.7178479 70.2535679,71.890997 C70.1086615,72.064146 69.9105945,72.1606067 69.6593691,72.1803767 L66.8767509,72.1655599 L66.8767509,73.7385825 C66.8381052,74.5795275 66.3888276,75 65.5289181,75 C65.1038006,75 64.7728731,74.8961241 64.536131,74.6883724 C64.299389,74.4806207 64.1713797,74.164024 64.152101,73.7385825 L64.152101,72.1951936 L61.3551009,72.195171 Z"
                      id="路径" fill="#FFFFFF" fill-rule="nonzero"></path>
                <path d="M74,45 L74.4538143,51.0064199 C74.4723882,52.1200934 75.171875,52.6769301 76.5522748,52.6769301 C77.9326746,52.6769301 79.9577014,52.3028684 82.6273552,51.5547449"
                      id="路径-4" stroke="#B98C5E" stroke-width="2"
                      transform="translate(78.313678, 48.838465) rotate(-16.000000) translate(-78.313678, -48.838465) "></path>
                <path d="M2,33 L2.45381434,39.0064199 C2.47238817,40.1200934 3.171875,40.6769301 4.55227482,40.6769301 C5.93267463,40.6769301 7.95770144,40.3028684 10.6273552,39.5547449"
                      id="路径-4备份" stroke="#B98C5E" stroke-width="2"
                      transform="translate(6.313678, 36.838465) rotate(-217.000000) translate(-6.313678, -36.838465) "></path>
                <path d="M63.1128571,50.7769784 L63.1128571,29.3573141 C63.1128571,27.5443645 61.6357143,26 59.7557143,26 L25.1771429,26 C23.3642857,26 21.82,27.4772182 21.82,29.3573141 L21.82,50.7769784 L19,50.7769784 C19.8057143,52.7242206 21.7528571,54 23.8342857,54 L61.1657143,54 C63.2471429,54 65.1271429,52.7913669 66,50.8441247 L66,50.7769784 L63.1128571,50.7769784 Z M60.2257143,50.7769784 L48.2071429,50.7769784 L47.7371429,51.4484412 C47.3342857,51.9184652 46.7971429,52.2541966 46.1257143,52.2541966 L38.74,52.2541966 C38.1357143,52.2541966 37.5314286,51.9856115 37.1285714,51.4484412 L36.6585714,50.7769784 L24.7742857,50.7769784 L24.7742857,29.3573141 C24.7742857,29.088729 24.9757143,28.8872902 25.2442857,28.8872902 L59.8228571,28.8872902 C60.0914286,28.8872902 60.2928571,29.088729 60.2928571,29.3573141 L60.2257143,50.7769784 L60.2257143,50.7769784 Z"
                      id="形状" stroke="#FFFFFF" stroke-width="0.5" fill="#B98C5E" fill-rule="nonzero"></path>
                <path d="M42.5671429,33.1846523 L44.85,33.1846523 L44.85,48.0239808 L42.5671429,48.0239808 L42.5671429,33.1846523 Z M50.2214286,36.206235 L52.5042857,36.206235 L52.5042857,48.0911271 L50.2214286,48.0911271 L50.2214286,36.206235 Z M54.1157143,32.3788969 L56.3985714,32.3788969 L56.3985714,48.0911271 L54.1157143,48.0911271 L54.1157143,32.3788969 Z M46.3942857,38.3549161 L48.6771429,38.3549161 L48.6771429,48.0239808 L46.3942857,48.0239808 L46.3942857,38.3549161 Z M34.5771429,33.117506 C40.15,33.5203837 40.15,38.7577938 40.15,38.7577938 L34.5771429,38.7577938 L34.5771429,33.117506 Z M33.3014286,34.3261391 L33.2342857,34.3261391 L33.2342857,40.0335731 L38.8742857,40.0335731 C38.9414286,43.1894484 36.39,45.7410072 33.3014286,45.7410072 C30.1457143,45.7410072 27.5942857,43.1894484 27.5942857,40.0335731 C27.5942857,36.8776978 30.1457143,34.3261391 33.3014286,34.3261391 Z"
                      id="形状结合" stroke="#FFFFFF" stroke-width="0.3" fill="#B98C5E" fill-rule="nonzero"></path>
            </g>
        </g>
    </g>
</svg>