<svg width="85" height="80" viewBox="0 0 85 80" xmlns="http://www.w3.org/2000/svg">
    <g fill="none" fill-rule="evenodd">
        <path d="M5 0h80v80H5z"/>
        <path d="M42.5 77C63.21 77 80 60.21 80 39.5S63.21 2 42.5 2 5 18.79 5 39.5 21.79 77 42.5 77zm0-2.344c-19.416 0-35.156-15.74-35.156-35.156 0-19.416 15.74-35.156 35.156-35.156 19.416 0 35.156 15.74 35.156 35.156 0 19.416-15.74 35.156-35.156 35.156z"
              fill="#B98C5E" fill-rule="nonzero"/>
        <circle fill="#FFF" cx="7.5" cy="27.5" r="5.5"/>
        <path d="M61.91 54.063a6.132 6.132 0 00-1.153-.1c-1.565.002-2.99.513-4.027 1.303-1.27.967-1.984 2.331-1.984 3.819 0 .77.217 1.513.572 2.207a18.35 18.35 0 00-.621.565c-2.52 2.39-3.947 5.158-3.947 8.175 0 3.984 1.604 6.956 4.141 8.999 2.627 2.114 6.355 3.219 10.488 3.219 3.223 0 6.362-.61 8.906-1.968 1.941-1.036 3.441-2.443 4.46-4.205.965-1.67 1.505-3.675 1.505-6.04.005-2.847-1.412-5.557-3.975-7.974-.102-.096-.204-.19-.308-.283a4.556 4.556 0 00.884-2.691c0-1.49-.714-2.854-1.983-3.82-1.039-.792-2.469-1.302-4.038-1.302-.351 0-.704.025-1.353.069-1.038-.805-2.274-1.286-3.679-1.286-1.32 0-2.495.415-3.888 1.313z"
              stroke="#FFF" stroke-width="4.5" fill="#B98C5E"/>
        <path d="M61.355 72.195a.762.762 0 01-.601-.334 1.47 1.47 0 01-.254-.675c.029-.247.114-.45.254-.608.14-.159.34-.248.601-.268h2.797v-.934l-2.797-.015c-.26-.02-.461-.114-.601-.282a1.177 1.177 0 01-.254-.638c.029-.248.114-.45.254-.609.14-.158.34-.247.601-.267h2.087L61.5 64.063a2.24 2.24 0 01-.275-.453 1.25 1.25 0 01-.116-.6c.048-.278.145-.503.29-.676.145-.173.415-.285.811-.334.232.02.44.101.623.245.184.143.334.3.45.467l2.203 4.126 2.42-4.155c.116-.169.266-.317.45-.446.183-.128.39-.207.622-.237.145.01.278.03.399.06.12.029.227.079.319.148.091.069.169.168.232.297a1.7 1.7 0 01.137.504c0 .287-.096.56-.29.816l-2.246 3.74h2.13c.252.02.45.109.595.267a.985.985 0 01.246.609c-.02.257-.104.475-.254.653a.837.837 0 01-.601.296l-2.768.015v.905h2.782c.252.02.45.12.595.297.144.178.227.391.246.638-.02.258-.102.473-.246.646a.823.823 0 01-.595.29l-2.782-.015v1.573c-.039.84-.488 1.261-1.348 1.261-.425 0-.756-.104-.993-.312-.237-.207-.365-.524-.384-.95v-1.543h-2.797z"
              fill="#FFF" fill-rule="nonzero"/>
        <path d="M73.11 46.338l2.09 5.648c.326 1.066 1.152 1.408 2.479 1.028 1.326-.38 3.17-1.298 5.53-2.753M12.069 37.308l-3.977-4.524c-.685-.878-1.58-.902-2.682-.071-1.102.83-2.494 2.348-4.176 4.552"
              stroke="#B98C5E" stroke-width="2"/>
        <path d="M47.648 42.438l.198.016c1.943.312 3.261 1.257 3.795 2.731 1.822-.55 3.538-.952 5.146-1.203 3.402-.532 4.717 1.142 4.717 4.27 0 2.634-10.277 9.681-15.412 11.22-3.331.997-10.438-.428-21.666-4.21L23 54.777l.036-9.84H23v-2.5h24.648zm-.108 2.5H25.536l-.03 8.048 1.299.431c9.607 3.15 15.844 4.364 18.432 3.697l.137-.038c4.13-1.237 13.63-7.751 13.63-8.824L59 47.906c-.033-1.465-.325-1.689-1.826-1.454-1.646.257-3.43.688-5.353 1.293-.353 1.844-1.8 2.845-3.991 2.813l-.163-.005-8.41.457-.135-2.496 8.458-.46h.127c1.33.063 1.7-.244 1.7-1.246 0-1.056-.479-1.602-1.76-1.85l-.107-.02zM57.253 26v12a2 2 0 01-2 2h-26v-2.5h25.5V26h2.5zm-7-6a2 2 0 012 2v12a2 2 0 01-2 2h-22a2 2 0 01-2-2V22a2 2 0 012-2h22zm-.5 2.5h-21v11h21v-11zm-10.5 1.5a4 4 0 110 8 4 4 0 010-8zm0 2.5a1.5 1.5 0 100 3 1.5 1.5 0 000-3z"
              fill="#B98C5E" fill-rule="nonzero"/>
    </g>
</svg>